<svg width="300" height="254" viewBox="0 0 1691 1434" fill="none" xmlns="http://www.w3.org/2000/svg">
<path d="M885.206 206.553L914.19 200.107C884.4 220.507 856.318 215.995 836.189 251.67C828.428 266.429 825.111 278.708 836.189 293.274C840.634 299.913 849.877 307.325 856.221 312.9C842.791 305.713 807.237 288.698 809.363 271.005C810.458 261.595 824.757 244.129 830.457 235.556C807.237 235.556 802.02 234.622 778.929 240.842C738.608 251.734 695.389 281.769 699.479 329.013L708.625 367.685L704.857 409.579V474.032C705.018 572.064 739.961 669.936 773.518 760.846C790.555 806.994 822.116 886.142 849.458 925.201C860.987 941.636 888.78 962.261 904.239 977.311L937.281 1015.14C952.225 1030.65 959.277 1032.45 969.261 1054.11C986.942 1092.49 991.45 1134.16 1014.06 1173.34C1036.99 1213.05 1074.31 1243.05 1091.54 1286.14C1098.37 1303.22 1108.1 1344.66 1110.13 1363.48C1112.25 1383.43 1113.38 1408.56 1128 1423.97C1150.54 1447.78 1212.6 1428.13 1210.35 1376.37C1209.03 1346.08 1194.05 1334.8 1179.08 1311.92C1171.73 1300.7 1163.72 1279.82 1159.56 1266.8C1150.29 1237.73 1152.22 1223.55 1147.32 1195.9C1140.95 1159.97 1131.03 1124.39 1120.24 1089.55L1098.37 1028.32L1078.98 992.876L1067.26 957.427C1053.9 924.717 1046.04 938.542 1046.23 896.197L1049.32 847.857C1048.13 817.081 1034.96 785.822 1023.69 757.623H1100.98C1100.98 833.194 1122.04 930.776 1187.93 976.956C1208.13 991.103 1273.63 993.746 1300.65 996.614L1416.59 1008.96C1456.65 1009.86 1482.58 991.651 1509.95 963.872C1553.3 919.851 1583.51 835.45 1584.06 773.737L1642.03 777.636C1651.75 778.442 1661.38 781.439 1670.95 777.636C1695.94 768.258 1697.1 722.336 1677.1 708.446C1663.54 699.004 1606.25 702.839 1587.28 702.839C1587.02 620.984 1553.75 522.21 1477.78 481.508C1435.49 458.885 1403.1 470.487 1358.62 473.742L1287.77 480.187C1270.64 481.379 1245.58 481.637 1229.8 488.05C1152.41 519.503 1107.84 623.691 1104.2 702.839L1062.33 706.061L997.924 709.284C994.8 699.423 982.336 678.347 982.819 671.966C983.399 664.006 995.959 650.89 1001.14 644.831C1014.93 628.783 1033.03 608.996 1041.95 590.046C1057.37 557.369 1047.42 541.385 1065.36 515.926C1089.03 482.346 1149.38 454.502 1118.95 393.466C1114.25 384.088 1107.49 375.838 1100.98 367.685L1123.52 377.352C1130.61 360.853 1139.98 344.385 1138.95 325.79C1135.79 268.363 1077.31 218.509 1020.47 232.334L1009.45 212.708C1007.55 207.294 1004.43 170.105 1005.78 164.787C1009.1 151.929 1018.76 149.641 1027.2 132.432C1030.26 126.116 1034.54 113.58 1035.41 106.651C1037.37 90.7312 1032.06 47.0967 1024.27 32.5626C1001.18 -10.2985 917.346 -8.20376 885.785 23.4425C868.427 40.8448 873.934 47.1934 867.944 64.7567C860.279 87.2507 850.553 108.552 847.493 132.432C840.827 184.317 882.339 157.955 885.206 206.553ZM997.924 338.681L981.66 370.907C972.449 394.916 969.647 438.357 988.262 457.918L941.468 538.484L936.444 586.824L930.132 631.941C924.045 616.15 929.262 605.837 930.132 590.046C930.905 568.906 920.47 551.053 934.641 519.148L963.561 470.809C965.912 462.14 960.308 433.394 959.567 422.469C957.023 384.926 966.942 360.949 997.924 338.681ZM1426.25 538.484C1407.25 558.561 1398.36 564.491 1383.97 590.046C1343.52 661.847 1337.11 790.494 1366.54 867.193C1379.65 901.353 1388.22 906.896 1406.93 934.868C1374.11 919.335 1357.49 881.244 1348.57 847.857C1329.54 776.379 1331.79 699.133 1354.56 628.718C1365.51 594.945 1389.25 547.669 1426.25 538.484ZM1468.12 664.167C1461.07 672.546 1453.34 679.926 1448.54 689.948C1435.27 717.792 1438.49 762.425 1471.34 773.737C1451.57 786.176 1439.52 769.451 1434.27 751.178C1425.7 721.175 1430.76 670.226 1468.12 664.167Z" fill="white"/>
<path d="M679.093 387.02L651.074 454.696L635.23 474.031L618.129 499.813C603.926 519.374 593.331 527.946 580.835 551.375L545.699 648.054C530.917 683.309 508.535 718.694 508.406 757.623L450.436 764.069C445.992 735.258 427.603 698.52 408.022 677.09C383.772 650.567 354.465 635.614 318.395 635.163C283.55 634.777 278.107 636.001 244.324 643.478C229.316 646.765 206.161 651.115 192.795 657.689C157.305 675.221 128.901 714.053 116.663 751.178C94.4732 818.596 107.516 914.791 157.499 967.095C182.619 993.391 203.842 1008.54 241.103 1008.99C271.408 1009.34 343 1003.61 369.924 992.586C417.845 972.928 446.83 922.719 456.04 873.638C458.52 860.49 459.486 814.02 465.251 808.348C470.404 803.256 482.062 801.967 489.083 800.871C511.691 797.359 533.783 802.74 556.713 802.74C539.902 846.504 544.379 859.684 540.063 902.642C537.841 924.782 531.175 933.966 528.792 947.759L526.344 986.431L506.538 1076.66L488.213 1179.79C486.86 1189.17 483.125 1224.13 479.357 1230.13C469.566 1245.69 448.182 1242.63 448.569 1273.25C449.18 1319.97 384.963 1325.71 353.821 1347.08C349.441 1350.1 345.222 1353.39 341.68 1357.36C316.238 1385.65 354.98 1386.01 373.144 1386.04H440.775L508.406 1379.85C518.744 1378.11 531.529 1376.37 539.226 1368.54C551.367 1356.2 544.572 1339.7 543.574 1324.81C542.865 1314.24 546.826 1273.31 549.596 1263.58L627.983 1121.78C642.927 1086.85 640.382 1064.71 640.447 1028.32C640.447 1018.4 640.125 1008.96 643.023 999.321C652.652 967.353 703.537 924.878 727.111 899.419C738.64 886.98 764.179 855.173 764.791 838.189C765.048 830.133 759.284 814.406 756.836 805.963L735.871 735.065C715.807 658.012 692.394 566.424 688.754 486.922L672.652 548.152C662.926 500.135 702.796 438.454 679.093 387.02ZM299.072 696.393C288.638 714.569 279.621 724.205 271.569 744.733C256.046 784.436 256.755 837.931 274.307 876.861C287.704 906.574 295.143 908.056 311.954 931.646C252.536 906.251 241.071 812.924 256.916 757.623C263.711 733.905 276.014 707.544 299.072 696.393ZM595.36 696.393C620.769 715.729 616.196 727.266 592.139 744.733L595.36 696.393ZM353.821 773.737C347.96 818.177 351.567 804.448 369.924 838.189C344.192 828.876 337.3 794.394 353.821 773.737Z" fill="#E57373"/>
</svg>
